<svg width="50" height="50" viewBox="0 0 50 50" fill="none" xmlns="http://www.w3.org/2000/svg">
<path d="M50 25C50 11.1929 38.8071 0 25 0C11.1929 0 0 11.1929 0 25C0 38.8071 11.1929 50 25 50C38.8071 50 50 38.8071 50 25Z" fill="#F7DD50"/>
<path d="M28.6289 9.19398C26.5706 9.29964 24.8665 9.72243 23.2927 10.5163C21.1237 11.6126 19.5573 13.2496 18.6892 15.3217C18.2244 16.4352 17.9712 17.6396 17.9072 19.0702C17.8408 20.545 18.0376 21.8158 18.5097 22.9662C18.6327 23.266 18.9499 23.8609 19.1417 24.1485C19.8204 25.1734 20.8138 26.0755 21.9598 26.7097C23.0123 27.2922 24.9869 27.9927 27.9281 28.8285C28.801 29.0767 29.2633 29.2242 29.6666 29.3815C30.5298 29.7257 31.147 30.1509 31.3511 30.5442C31.4052 30.6499 31.4175 30.7039 31.4175 30.8563C31.4175 31.0112 31.4052 31.0653 31.3437 31.1881C31.2208 31.4413 30.8273 31.7855 30.4363 31.9821C30.274 32.0632 29.9076 32.1837 29.674 32.2353C28.5748 32.4688 26.8756 32.2598 25.4443 31.7167C24.1386 31.2201 23.1451 30.6204 22.068 29.679C21.8344 29.4749 21.6327 29.3078 21.6204 29.3078C21.6106 29.3078 20.5114 30.7359 19.181 32.4786L16.7637 35.6519L16.7588 35.8903L16.7539 36.1288L16.9408 36.2885C18.3499 37.4929 19.3827 38.1935 20.7474 38.8694C21.7459 39.3659 22.5672 39.6855 23.5853 39.9731C25.0558 40.3909 26.4895 40.5974 28.1617 40.6318C31.8061 40.7055 34.9069 39.7199 37.3809 37.697C39.9038 35.6372 41.0621 32.9309 40.8506 29.5904C40.7055 27.275 40.0342 25.5003 38.7801 24.0944C38.2317 23.4823 37.4522 22.8727 36.7734 22.5262C35.7111 21.9854 33.9479 21.4496 30.8667 20.7294C30.4142 20.6237 29.9199 20.5032 29.7724 20.459C28.4937 20.0878 27.7264 19.6355 27.4756 19.1071C27.419 18.9891 27.4116 18.9399 27.4116 18.7261C27.4116 18.5073 27.419 18.4655 27.4805 18.3402C27.6059 18.0845 27.9207 17.8707 28.4273 17.6962C28.8797 17.5389 29.1576 17.4996 29.7601 17.4971C30.606 17.4971 31.2626 17.62 32.0028 17.9174C32.6741 18.1854 33.193 18.5122 33.9504 19.1366L34.243 19.3799L34.3315 19.2963C35.7873 17.915 40.1006 13.7831 40.1006 13.7708C40.1006 13.7462 39.2079 12.9522 38.8219 12.6327C38.062 12.0035 37.2358 11.4332 36.3997 10.9588C34.4963 9.87976 32.5659 9.32914 30.2273 9.20131C29.8166 9.1792 28.9806 9.17429 28.6289 9.19398Z" fill="#A16AFE"/>
<path d="M17.42 30.0459C17.3419 29.9164 17.207 29.6744 17.034 29.3547C16.2411 27.8872 15.5656 26.3567 14.9971 24.7411C14.8803 24.4087 14.8152 24.2112 14.5868 23.4925C14.4726 23.1332 14.3476 22.7438 14.3088 22.6264C13.8193 21.1393 13.4228 20.32 12.7883 19.4762C12.6672 19.3158 12.217 18.8371 12.0721 18.7165C11.3098 18.0751 10.5243 17.7474 9.5992 17.6857C8.63815 17.6211 7.75281 17.8787 6.93411 18.4598C6.75001 18.5893 6.33256 18.9819 6.19394 19.1542C5.70973 19.7565 5.43202 20.3813 5.31147 21.1397C5.2779 21.3531 5.25933 21.8705 5.2778 22.0909C5.34174 22.8262 5.59901 23.5142 6.04809 24.146C6.16553 24.3118 6.56318 24.7401 6.7056 24.8562C7.12753 25.197 7.50995 25.4178 8.02902 25.6184C8.6425 25.8543 9.24914 25.9882 10.5783 26.1803C11.9129 26.3726 12.4839 26.4964 13.1664 26.7426C14.2589 27.1346 15.2793 27.7623 16.1472 28.5717C16.339 28.7515 16.735 29.1726 16.8949 29.3667C17.0537 29.5616 17.271 29.8503 17.376 30.0085C17.4208 30.0765 17.4614 30.1327 17.465 30.1328C17.4686 30.1329 17.4482 30.0944 17.42 30.0459Z" fill="white"/>
<path d="M15.9809 31.4627C15.8832 31.4886 15.7026 31.53 15.4648 31.5813C14.3739 31.816 13.2645 31.9636 12.1204 32.0265C11.885 32.0393 11.746 32.0442 11.2417 32.0565C10.9894 32.0626 10.716 32.07 10.6333 32.0729C9.58658 32.1092 8.98615 32.2106 8.32553 32.4603C8.19975 32.5081 7.80807 32.7077 7.70348 32.7782C7.14894 33.1478 6.79149 33.5911 6.57882 34.1737C6.35751 34.7789 6.35733 35.3958 6.57745 36.0304C6.62615 36.1729 6.80025 36.5144 6.88503 36.6357C7.18124 37.0594 7.53062 37.3546 7.99521 37.5739C8.12596 37.6354 8.45484 37.7442 8.59987 37.7736C9.0841 37.87 9.57416 37.8335 10.064 37.6633C10.1924 37.6188 10.542 37.4435 10.6432 37.3738C10.9411 37.1665 11.1543 36.9622 11.3803 36.6663C11.6466 36.3164 11.8461 35.9518 12.2182 35.1339C12.5914 34.3127 12.7777 33.9692 13.0635 33.5768C13.5197 32.9485 14.1137 32.4105 14.796 32.0044C14.9473 31.9149 15.2919 31.7392 15.4465 31.6729C15.6014 31.6073 15.8275 31.5218 15.9488 31.4839C16.0008 31.4678 16.0445 31.4523 16.0453 31.45C16.046 31.4477 16.0174 31.4536 15.9809 31.4627Z" fill="white"/>
</svg>
