<svg width="805" height="805" viewBox="0 0 805 805" fill="none" xmlns="http://www.w3.org/2000/svg">
<rect width="805" height="805" rx="402.5" fill="#A16AFE"/>
<path d="M460.927 148.023C427.789 149.724 400.352 156.531 375.014 169.313C340.094 186.963 314.874 213.319 300.898 246.68C293.415 264.607 289.338 283.998 288.308 307.03C287.239 330.775 290.407 351.234 298.008 369.755C299.988 374.583 305.095 384.16 308.183 388.79C319.11 405.292 335.105 419.816 353.555 430.026C370.5 439.405 402.292 450.683 449.644 464.138C463.699 468.135 471.142 470.51 477.635 473.042C491.532 478.583 501.469 485.429 504.755 491.761C505.626 493.463 505.824 494.333 505.824 496.787C505.824 499.28 505.626 500.151 504.636 502.129C502.657 506.205 496.322 511.746 490.027 514.912C487.414 516.217 481.515 518.157 477.754 518.988C460.056 522.747 432.699 519.383 409.656 510.638C388.633 502.644 372.638 492.988 355.297 477.831C351.536 474.546 348.289 471.855 348.091 471.855C347.933 471.855 330.236 494.848 308.817 522.905L269.898 573.995L269.819 577.834L269.74 581.673L272.749 584.245C295.435 603.636 312.063 614.915 334.036 625.797C350.111 633.791 363.334 638.936 379.725 643.566C403.401 650.294 426.483 653.618 453.405 654.172C512.08 655.359 562.004 639.49 601.834 606.921C642.454 573.758 661.102 530.187 657.697 476.406C655.361 439.128 644.553 410.555 624.361 387.919C615.532 378.065 602.982 368.251 592.054 362.671C574.951 353.965 546.564 345.338 496.956 333.743C489.671 332.041 481.713 330.102 479.337 329.389C458.75 323.414 446.397 316.132 442.359 307.624C441.448 305.724 441.329 304.933 441.329 301.49C441.329 297.968 441.448 297.295 442.438 295.277C444.457 291.161 449.525 287.718 457.681 284.909C464.966 282.376 469.439 281.743 479.139 281.703C492.759 281.703 503.33 283.682 515.247 288.47C526.055 292.784 534.409 298.047 546.603 308.099L551.315 312.017L552.74 310.671C576.178 288.431 645.622 221.907 645.622 221.709C645.622 221.313 631.25 208.531 625.034 203.386C612.8 193.256 599.498 184.074 586.037 176.437C555.393 159.064 524.313 150.199 486.662 148.141C480.05 147.785 466.589 147.706 460.927 148.023Z" fill="#F7DD50"/>
<path d="M280.465 483.74C279.209 481.656 277.037 477.76 274.251 472.613C261.486 448.986 250.61 424.344 241.457 398.333C239.576 392.981 238.528 389.802 234.851 378.231C233.012 372.446 231 366.176 230.376 364.286C222.495 340.345 216.111 327.153 205.896 313.569C203.945 310.986 196.697 303.279 194.364 301.337C182.091 291.011 169.445 285.735 154.551 284.742C139.078 283.702 124.824 287.848 111.643 297.205C108.679 299.29 101.958 305.61 99.7263 308.385C91.9304 318.081 87.4593 328.14 85.5185 340.351C84.978 343.786 84.6791 352.117 84.9764 355.665C86.0058 367.503 90.1479 378.58 97.3781 388.752C99.2688 391.421 105.671 398.318 107.964 400.187C114.757 405.674 120.914 409.228 129.271 412.458C139.148 416.256 148.915 418.412 170.315 421.505C191.802 424.6 200.995 426.594 211.983 430.557C229.572 436.868 246 446.974 259.974 460.006C263.061 462.9 269.438 469.681 272.011 472.805C274.569 475.944 278.067 480.591 279.758 483.138C280.479 484.233 281.133 485.138 281.191 485.14C281.249 485.141 280.92 484.522 280.465 483.74Z" fill="white"/>
<path d="M257.291 506.548C255.718 506.965 252.81 507.631 248.982 508.458C231.418 512.236 213.556 514.613 195.136 515.625C191.347 515.832 189.109 515.911 180.989 516.108C176.928 516.207 172.525 516.326 171.194 516.373C154.342 516.957 144.675 518.589 134.039 522.609C132.014 523.379 125.708 526.593 124.024 527.728C115.096 533.679 109.341 540.815 105.917 550.196C102.354 559.939 102.351 569.871 105.895 580.088C106.679 582.382 109.482 587.881 110.847 589.833C115.616 596.655 121.241 601.408 128.721 604.939C130.826 605.929 136.121 607.68 138.456 608.153C146.252 609.706 154.142 609.118 162.028 606.377C164.096 605.661 169.724 602.839 171.353 601.717C176.149 598.38 179.583 595.09 183.221 590.326C187.508 584.693 190.721 578.822 196.711 565.655C202.719 552.433 205.719 546.902 210.32 540.585C217.665 530.469 227.229 521.807 238.214 515.27C240.65 513.828 246.198 511 248.687 509.932C251.181 508.876 254.821 507.499 256.773 506.889C257.611 506.631 258.315 506.38 258.327 506.343C258.338 506.306 257.879 506.402 257.291 506.548Z" fill="white"/>
</svg>
